<svg width="125" height="22" viewBox="0 0 125 22" fill="none" xmlns="http://www.w3.org/2000/svg">
<path d="M14.3177 3.96602H11.4255V8.86303H11.2948L8.51527 3.96602C3.81907 3.96602 -0.000244141 7.89812 -0.000244141 12.733C-0.000244141 17.5679 3.81907 21.5 8.51527 21.5H11.4074V16.6051H11.5402L14.3177 21.5C19.0118 21.5 22.8332 17.5679 22.8332 12.733C22.8332 7.89812 19.0139 3.96602 14.3177 3.96602ZM14.3177 16.3856H8.51527C6.55835 16.3856 4.96748 14.7477 4.96748 12.733C4.96748 10.7183 6.55835 9.08044 8.51527 9.08044H14.3177C16.2746 9.08044 17.8654 10.7183 17.8654 12.733C17.8654 14.7477 16.2746 16.3856 14.3177 16.3856Z" fill="#FDFEFF"/>
<path fill-rule="evenodd" clip-rule="evenodd" d="M50.5609 5.383C46.2762 5.383 43.2264 8.59824 43.2264 12.8023C43.2264 17.0064 46.2524 20.1972 50.5609 20.1972C54.8695 20.1972 57.8676 16.9799 57.8676 12.8023C57.8676 8.62475 54.8655 5.383 50.5609 5.383ZM51.1109 16.4355C48.8832 16.7679 46.9195 14.7474 47.1022 12.4455C47.2531 10.5107 48.639 9.10795 50.5609 9.10795C52.5941 9.10795 54.0038 10.6881 54.0038 12.8044C54.0038 14.7025 52.8443 16.1786 51.1109 16.4376V16.4355Z" fill="#FDFEFF"/>
<path fill-rule="evenodd" clip-rule="evenodd" d="M38.9179 14.0093H38.9139V14.0134C38.493 15.567 37.266 16.4763 35.6517 16.4763C33.5888 16.4763 32.2565 14.8656 32.2565 12.8023C32.2565 10.739 33.563 9.10592 35.6517 9.10592C37.2679 9.10592 38.5168 10.0397 38.9358 11.6443C38.9358 11.6463 38.9397 11.6484 38.9417 11.6484L42.4561 10.739H42.4581V10.7329C41.5706 7.19961 38.8842 5.38097 35.5445 5.38097C31.2141 5.38097 28.3927 8.67573 28.3927 12.8003C28.3927 16.9249 31.2141 20.1951 35.5445 20.1951C38.8842 20.1951 41.5964 18.401 42.4601 14.8983C42.4601 14.8942 42.4601 14.8921 42.4561 14.8921L38.9179 14.0073V14.0093Z" fill="#FDFEFF"/>
<path fill-rule="evenodd" clip-rule="evenodd" d="M78.9698 5.383C75.1337 5.383 71.949 8.38213 71.949 12.8023C71.949 17.2225 74.8717 20.1972 79.075 20.1972C81.7336 20.1972 84.3942 19.0208 85.3889 15.8647C85.3889 15.8626 85.3889 15.8585 85.385 15.8585L82.0036 15.0552C82.0036 15.0552 81.9997 15.0552 81.9977 15.0593C81.4735 16.2337 80.2762 16.7414 79.0234 16.7414C77.2265 16.7414 75.8962 15.62 75.8684 13.7748C75.8684 13.7728 75.8704 13.7687 75.8743 13.7687H85.8357V12.7779C85.8357 8.59825 83.2009 5.383 78.9717 5.383H78.9698ZM81.9917 11.1692H75.8982C75.8982 11.1692 75.8922 11.1651 75.8922 11.1631C76.0788 9.90718 77.1987 8.62475 78.9698 8.62475C80.584 8.62475 81.813 9.74611 81.9977 11.1631C81.9977 11.1672 81.9977 11.1692 81.9917 11.1692Z" fill="#FDFEFF"/>
<path fill-rule="evenodd" clip-rule="evenodd" d="M107.746 5.72961H104.098L104.094 1.87214H100.548L100.542 5.72961H95.0186L92.0443 10.4699H90.8947V0.5H87.0845V19.8485H90.8947V14.0644H92.1217L95.2013 19.8485H99.7381V19.8424L95.3343 12.3232V12.0276L97.2265 9.18951H100.288V9.19359L100.294 15.7607C100.383 18.6416 101.912 19.8526 104.597 19.8526H107.595V16.3438H107.591L104.823 16.3377C104.343 16.3356 104.086 16.0033 104.098 15.4589V9.19155H107.748L107.752 9.18747L107.748 5.73369L107.746 5.72961Z" fill="#FDFEFF"/>
<path fill-rule="evenodd" clip-rule="evenodd" d="M123.197 16.3316C122.899 16.2989 122.589 16.0971 122.589 15.6445V5.74594H118.779V7.37089H118.489C118.489 7.37089 117.832 5.39526 114.679 5.39526C111.157 5.39526 108.365 8.52894 108.365 12.7901C108.365 17.0513 111.183 20.2115 114.707 20.2115C116.69 20.2115 117.937 19.3674 118.487 18.1053H118.777V18.2685C118.783 18.7007 118.936 19.1248 119.236 19.4265C119.47 19.661 119.816 19.8587 120.316 19.8628H125V16.3377L123.197 16.3316ZM115.543 16.46C113.716 16.46 112.229 15.041 112.229 12.8166C112.229 10.5922 113.688 9.17322 115.517 9.17322C117.346 9.17322 118.829 10.4862 118.829 12.8166C118.829 14.8004 117.524 16.46 115.543 16.46Z" fill="#FDFEFF"/>
<path fill-rule="evenodd" clip-rule="evenodd" d="M66.3457 5.383C64.7573 5.383 63.5163 6.1965 63.008 7.3566H62.746V5.73164H58.9377V19.8485H62.744V11.6381L62.7519 11.4526C62.8294 10.3496 63.5918 9.36689 64.664 9.19562C66.2186 8.94485 67.3643 10.056 67.3643 11.6259V19.8485H71.1725V10.368L71.1685 10.1253C71.0593 7.47689 69.1592 5.383 66.3437 5.383H66.3457Z" fill="#FDFEFF"/>
</svg>
