<svg width="140" height="23" viewBox="0 0 140 23" fill="none" xmlns="http://www.w3.org/2000/svg">
<path d="M16.036 3.78043H12.7968V9.12164H12.6504L9.53738 3.78043C4.27763 3.78043 0 8.0692 0 13.3427C0 18.6161 4.27763 22.9049 9.53738 22.9049H12.7766V17.5659H12.9252L16.036 22.9049C21.2935 22.9049 25.5734 18.6161 25.5734 13.3427C25.5734 8.0692 21.2958 3.78043 16.036 3.78043ZM16.036 17.3265H9.53738C7.34563 17.3265 5.56385 15.5401 5.56385 13.3427C5.56385 11.1452 7.34563 9.35877 9.53738 9.35877H16.036C18.2278 9.35877 20.0096 11.1452 20.0096 13.3427C20.0096 15.5401 18.2278 17.3265 16.036 17.3265Z" fill="#171D4D"/>
<path fill-rule="evenodd" clip-rule="evenodd" d="M56.6282 5.32593C51.8293 5.32593 48.4136 8.83282 48.4136 13.4182C48.4136 18.0037 51.8026 21.4839 56.6282 21.4839C61.4538 21.4839 64.8117 17.9748 64.8117 13.4182C64.8117 8.86173 61.4493 5.32593 56.6282 5.32593ZM57.2442 17.381C54.7491 17.7435 52.5498 15.5397 52.7544 13.0291C52.9234 10.9187 54.4756 9.38877 56.6282 9.38877C58.9053 9.38877 60.4842 11.1122 60.4842 13.4205C60.4842 15.4908 59.1855 17.1008 57.2442 17.3832V17.381Z" fill="#171D4D"/>
<path fill-rule="evenodd" clip-rule="evenodd" d="M43.588 14.7347H43.5836V14.7392C43.1121 16.4337 41.7379 17.4255 39.9299 17.4255C37.6194 17.4255 36.1273 15.6687 36.1273 13.4183C36.1273 11.1678 37.5905 9.38655 39.9299 9.38655C41.7401 9.38655 43.1388 10.405 43.6081 12.1552C43.6081 12.1574 43.6125 12.1596 43.6147 12.1596L47.5508 11.1678H47.553V11.1611C46.559 7.30732 43.5502 5.32372 39.8098 5.32372C34.9598 5.32372 31.7998 8.91734 31.7998 13.416C31.7998 17.9147 34.9598 21.4817 39.8098 21.4817C43.5502 21.4817 46.5879 19.5247 47.5553 15.7043C47.5553 15.6999 47.5553 15.6976 47.5508 15.6976L43.588 14.7325V14.7347Z" fill="#171D4D"/>
<path fill-rule="evenodd" clip-rule="evenodd" d="M88.4463 5.32593C84.1499 5.32593 80.583 8.5971 80.583 13.4182C80.583 18.2394 83.8564 21.4839 88.5641 21.4839C91.5418 21.4839 94.5216 20.2008 95.6357 16.7584C95.6357 16.7561 95.6357 16.7517 95.6313 16.7517L91.8442 15.8755C91.8442 15.8755 91.8398 15.8755 91.8375 15.88C91.2505 17.1609 89.9095 17.7146 88.5063 17.7146C86.4938 17.7146 85.0039 16.4915 84.9727 14.479C84.9727 14.4768 84.975 14.4723 84.9794 14.4723H96.1361V13.3916C96.1361 8.83282 93.1851 5.32593 88.4485 5.32593H88.4463ZM91.8309 11.637H85.0061C85.0061 11.637 84.9994 11.6326 84.9994 11.6303C85.2085 10.2605 86.4627 8.86173 88.4463 8.86173C90.2542 8.86173 91.6307 10.0848 91.8375 11.6303C91.8375 11.6348 91.8375 11.637 91.8309 11.637Z" fill="#171D4D"/>
<path fill-rule="evenodd" clip-rule="evenodd" d="M120.675 5.70398H116.59L116.586 1.4966H112.614L112.607 5.70398H106.421L103.09 10.8743H101.802V0H97.5347V21.1036H101.802V14.7948H103.176L106.625 21.1036H111.707V21.097L106.774 12.8957V12.5732L108.894 9.47773H112.323V9.48218L112.329 16.645C112.43 19.7872 114.142 21.1081 117.148 21.1081H120.506V17.281H120.502L117.402 17.2743C116.864 17.2721 116.577 16.9096 116.59 16.3158V9.47996H120.678L120.682 9.47551L120.678 5.70843L120.675 5.70398Z" fill="#171D4D"/>
<path fill-rule="evenodd" clip-rule="evenodd" d="M137.981 17.2676C137.647 17.232 137.3 17.0119 137.3 16.5182V5.72178H133.033V7.49413H132.708C132.708 7.49413 131.972 5.33929 128.441 5.33929C124.496 5.33929 121.369 8.75724 121.369 13.4049C121.369 18.0526 124.525 21.4995 128.472 21.4995C130.693 21.4995 132.09 20.5788 132.706 19.2023H133.031V19.3802C133.037 19.8517 133.209 20.3142 133.544 20.6433C133.807 20.8991 134.194 21.1148 134.754 21.1192H140V17.2743L137.981 17.2676ZM129.408 17.4077C127.362 17.4077 125.697 15.86 125.697 13.4338C125.697 11.0077 127.331 9.45995 129.379 9.45995C131.427 9.45995 133.088 10.8921 133.088 13.4338C133.088 15.5976 131.627 17.4077 129.408 17.4077Z" fill="#171D4D"/>
<path fill-rule="evenodd" clip-rule="evenodd" d="M74.3076 5.32593C72.5286 5.32593 71.1388 6.21321 70.5695 7.47854H70.2759V5.70619H66.0107V21.1036H70.2737V12.1485L70.2826 11.9461C70.3693 10.743 71.2233 9.67119 72.4241 9.48439C74.1653 9.21086 75.4484 10.4228 75.4484 12.1351V21.1036H79.7136V10.7631L79.7092 10.4984C79.5869 7.60975 77.4587 5.32593 74.3054 5.32593H74.3076Z" fill="#171D4D"/>
</svg>
